<svg width="27" height="27" viewBox="0 0 27 27" fill="none" xmlns="http://www.w3.org/2000/svg">
<path d="M5.55624 20.0875C6.65416 19.248 7.88124 18.586 9.2375 18.1016C10.5937 17.6172 12.0146 17.375 13.5 17.375C14.9854 17.375 16.4062 17.6172 17.7625 18.1016C19.1187 18.586 20.3458 19.248 21.4437 20.0875C22.1972 19.2049 22.7838 18.2039 23.2036 17.0844C23.6234 15.965 23.8333 14.7702 23.8333 13.5C23.8333 10.6368 22.8269 8.19883 20.8141 6.18598C18.8012 4.17313 16.3632 3.16671 13.5 3.16671C10.6368 3.16671 8.19878 4.17313 6.18593 6.18598C4.17309 8.19883 3.16666 10.6368 3.16666 13.5C3.16666 14.7702 3.37656 15.965 3.79635 17.0844C4.21614 18.2039 4.80277 19.2049 5.55624 20.0875ZM13.5 14.7917C12.2299 14.7917 11.1588 14.3558 10.287 13.4839C9.4151 12.612 8.97916 11.541 8.97916 10.2709C8.97916 9.00073 9.4151 7.92973 10.287 7.05785C11.1588 6.18598 12.2299 5.75004 13.5 5.75004C14.7701 5.75004 15.8411 6.18598 16.713 7.05785C17.5849 7.92973 18.0208 9.00073 18.0208 10.2709C18.0208 11.541 17.5849 12.612 16.713 13.4839C15.8411 14.3558 14.7701 14.7917 13.5 14.7917ZM13.5 26.4167C11.7132 26.4167 10.034 26.0776 8.46249 25.3995C6.89097 24.7214 5.52395 23.8011 4.36145 22.6386C3.19895 21.4761 2.27864 20.1091 1.60052 18.5375C0.922391 16.966 0.583328 15.2868 0.583328 13.5C0.583328 11.7132 0.922391 10.0341 1.60052 8.46254C2.27864 6.89101 3.19895 5.524 4.36145 4.3615C5.52395 3.199 6.89097 2.27869 8.46249 1.60056C10.034 0.922436 11.7132 0.583374 13.5 0.583374C15.2868 0.583374 16.966 0.922436 18.5375 1.60056C20.109 2.27869 21.476 3.199 22.6385 4.3615C23.801 5.524 24.7213 6.89101 25.3995 8.46254C26.0776 10.0341 26.4167 11.7132 26.4167 13.5C26.4167 15.2868 26.0776 16.966 25.3995 18.5375C24.7213 20.1091 23.801 21.4761 22.6385 22.6386C21.476 23.8011 20.109 24.7214 18.5375 25.3995C16.966 26.0776 15.2868 26.4167 13.5 26.4167Z" fill="#919FFF"/>
</svg>
