<svg width="27" height="27" viewBox="0 0 27 27" fill="none" xmlns="http://www.w3.org/2000/svg">
<path d="M8.84998 19.9584L13.5 15.3084L18.15 19.9584L19.9583 18.15L15.3083 13.5L19.9583 8.85004L18.15 7.04171L13.5 11.6917L8.84998 7.04171L7.04165 8.85004L11.6916 13.5L7.04165 18.15L8.84998 19.9584ZM13.5 26.4167C11.7132 26.4167 10.034 26.0776 8.46248 25.3995C6.89095 24.7214 5.52394 23.8011 4.36144 22.6386C3.19894 21.4761 2.27863 20.1091 1.6005 18.5375C0.922375 16.966 0.583313 15.2868 0.583313 13.5C0.583313 11.7132 0.922375 10.0341 1.6005 8.46254C2.27863 6.89101 3.19894 5.524 4.36144 4.3615C5.52394 3.199 6.89095 2.27869 8.46248 1.60056C10.034 0.922436 11.7132 0.583374 13.5 0.583374C15.2868 0.583374 16.966 0.922436 18.5375 1.60056C20.109 2.27869 21.476 3.199 22.6385 4.3615C23.801 5.524 24.7213 6.89101 25.3995 8.46254C26.0776 10.0341 26.4166 11.7132 26.4166 13.5C26.4166 15.2868 26.0776 16.966 25.3995 18.5375C24.7213 20.1091 23.801 21.4761 22.6385 22.6386C21.476 23.8011 20.109 24.7214 18.5375 25.3995C16.966 26.0776 15.2868 26.4167 13.5 26.4167ZM13.5 23.8334C16.3847 23.8334 18.8281 22.8323 20.8302 20.8302C22.8323 18.8282 23.8333 16.3848 23.8333 13.5C23.8333 10.6153 22.8323 8.17192 20.8302 6.16983C18.8281 4.16775 16.3847 3.16671 13.5 3.16671C10.6153 3.16671 8.17185 4.16775 6.16977 6.16983C4.16769 8.17192 3.16665 10.6153 3.16665 13.5C3.16665 16.3848 4.16769 18.8282 6.16977 20.8302C8.17185 22.8323 10.6153 23.8334 13.5 23.8334Z" fill="#101642"/>
</svg>
