<svg width="25" height="25" viewBox="0 0 25 25" fill="none" xmlns="http://www.w3.org/2000/svg">
<path fill-rule="evenodd" clip-rule="evenodd" d="M4.48438 12.1093L7.5625 15.1874C7.67764 15.2947 7.76998 15.4241 7.83403 15.5679C7.89808 15.7116 7.93252 15.8668 7.9353 16.0241C7.93808 16.1815 7.90913 16.3378 7.85019 16.4837C7.79125 16.6296 7.70353 16.7622 7.59225 16.8734C7.48097 16.9847 7.34842 17.0724 7.2025 17.1314C7.05658 17.1903 6.90028 17.2193 6.74293 17.2165C6.58559 17.2137 6.43041 17.1793 6.28666 17.1152C6.14291 17.0512 6.01353 16.9588 5.90625 16.8437L0.828125 11.7656L0 10.9374L0.828125 10.1093L5.90625 5.03119C6.1284 4.82419 6.42222 4.7115 6.72582 4.71686C7.02941 4.72221 7.31908 4.8452 7.53378 5.05991C7.74849 5.27462 7.87148 5.56428 7.87684 5.86788C7.88219 6.17147 7.7695 6.4653 7.5625 6.68744L4.48438 9.76557H19.9219C21.2687 9.76557 22.5603 10.3006 23.5127 11.2529C24.465 12.2052 25 13.4969 25 14.8437C25 16.1905 24.465 17.4821 23.5127 18.4345C22.5603 19.3868 21.2687 19.9218 19.9219 19.9218H16.7969C16.4861 19.9218 16.188 19.7984 15.9682 19.5786C15.7485 19.3588 15.625 19.0607 15.625 18.7499C15.625 18.4391 15.7485 18.1411 15.9682 17.9213C16.188 17.7015 16.4861 17.5781 16.7969 17.5781H19.9219C20.6471 17.5781 21.3426 17.29 21.8554 16.7772C22.3682 16.2644 22.6562 15.5689 22.6562 14.8437C22.6562 14.1185 22.3682 13.423 21.8554 12.9102C21.3426 12.3974 20.6471 12.1093 19.9219 12.1093H4.48438Z" fill="#5982CF"/>
</svg>
