<svg width="26" height="26" viewBox="0 0 26 26" fill="none" xmlns="http://www.w3.org/2000/svg">
<path d="M8 20.5L13 16.6875L18 20.5L16.125 14.3125L21.125 10.75H15L13 4.25L11 10.75H4.875L9.875 14.3125L8 20.5ZM13 25.5C11.2708 25.5 9.64583 25.1719 8.125 24.5156C6.60417 23.8594 5.28125 22.9688 4.15625 21.8438C3.03125 20.7188 2.14063 19.3958 1.48438 17.875C0.828125 16.3542 0.5 14.7292 0.5 13C0.5 11.2708 0.828125 9.64583 1.48438 8.125C2.14063 6.60417 3.03125 5.28125 4.15625 4.15625C5.28125 3.03125 6.60417 2.14063 8.125 1.48438C9.64583 0.828125 11.2708 0.5 13 0.5C14.7292 0.5 16.3542 0.828125 17.875 1.48438C19.3958 2.14063 20.7188 3.03125 21.8438 4.15625C22.9688 5.28125 23.8594 6.60417 24.5156 8.125C25.1719 9.64583 25.5 11.2708 25.5 13C25.5 14.7292 25.1719 16.3542 24.5156 17.875C23.8594 19.3958 22.9688 20.7188 21.8438 21.8438C20.7188 22.9688 19.3958 23.8594 17.875 24.5156C16.3542 25.1719 14.7292 25.5 13 25.5Z" fill="#36418F"/>
</svg>
