<svg width="107" height="90" viewBox="0 0 107 90" fill="none" xmlns="http://www.w3.org/2000/svg">
<path d="M47.3924 3.56737C49.7953 -1.18913 56.5873 -1.18912 58.9902 3.56737L97.6608 80.1153C99.8438 84.4365 96.7033 89.5416 91.8619 89.5416H14.5207C9.67933 89.5416 6.53878 84.4365 8.72182 80.1152L47.3924 3.56737Z" fill="#4859C7" fill-opacity="0.75"/>
<path d="M0.076301 30.2038C-0.748517 24.697 5.28332 20.772 9.98406 23.7568L95.23 77.885C100.72 81.3709 98.2506 89.8665 91.7474 89.8665H14.6088C11.3923 89.8665 8.66005 87.513 8.1836 84.332L0.076301 30.2038Z" fill="#548EDB" fill-opacity="0.75"/>
<path d="M106.469 30.2038C107.294 24.697 101.262 20.772 96.561 23.7568L11.3151 77.885C5.82516 81.3709 8.29448 89.8665 14.7976 89.8665H91.9362C95.1527 89.8665 97.885 87.513 98.3615 84.332L106.469 30.2038Z" fill="#79A4F4" fill-opacity="0.75"/>
</svg>
