<svg width="164" height="52" viewBox="0 0 164 52" fill="none" xmlns="http://www.w3.org/2000/svg">
<path d="M76.113 22.7543L73.9462 19.17L74.1487 19.2915C74.0947 19.2915 74.0205 19.2915 73.926 19.2915C73.845 19.305 73.7505 19.3118 73.6425 19.3118C72.738 19.3118 71.9483 19.1362 71.2733 18.7852C70.6118 18.4207 70.0987 17.9145 69.7343 17.2665C69.3698 16.605 69.1875 15.8355 69.1875 14.958V8.478C69.1875 7.587 69.3698 6.8175 69.7343 6.1695C70.0987 5.5215 70.6118 5.022 71.2733 4.671C71.9483 4.3065 72.738 4.12425 73.6425 4.12425C74.5605 4.12425 75.3502 4.3065 76.0117 4.671C76.6732 5.022 77.1863 5.5215 77.5508 6.1695C77.9153 6.8175 78.0975 7.587 78.0975 8.478V14.958C78.0975 15.8625 77.9017 16.6523 77.5102 17.3273C77.1187 18.0023 76.5653 18.5085 75.8498 18.846L78.219 22.7543H76.113ZM73.6425 17.6917C74.439 17.6917 75.0735 17.442 75.546 16.9425C76.032 16.443 76.275 15.7815 76.275 14.958V8.478C76.275 7.641 76.032 6.9795 75.546 6.4935C75.0735 5.994 74.439 5.74425 73.6425 5.74425C72.846 5.74425 72.2047 5.994 71.7187 6.4935C71.2462 6.9795 71.01 7.641 71.01 8.478V14.958C71.01 15.7815 71.2462 16.443 71.7187 16.9425C72.2047 17.442 72.846 17.6917 73.6425 17.6917Z" fill="#719DED"/>
<path d="M85.7643 19.3118C84.4818 19.3118 83.4558 18.9338 82.6863 18.1778C81.9168 17.4083 81.5321 16.3687 81.5321 15.0592V7.97175H83.3546V15.0592C83.3546 15.8962 83.5706 16.551 84.0026 17.0235C84.4346 17.4825 85.0218 17.712 85.7643 17.712C86.5203 17.712 87.1143 17.4825 87.5463 17.0235C87.9918 16.551 88.2146 15.8962 88.2146 15.0592V7.97175H90.0371V15.0592C90.0371 16.3687 89.6456 17.4083 88.8626 18.1778C88.0796 18.9338 87.0468 19.3118 85.7643 19.3118Z" fill="#719DED"/>
<path d="M96.9547 19.3118C95.7802 19.3118 94.8554 19.0148 94.1804 18.4208C93.5054 17.8133 93.1679 16.9965 93.1679 15.9705C93.1679 14.931 93.5054 14.1143 94.1804 13.5202C94.8554 12.9262 95.7667 12.6292 96.9142 12.6292H100.357V11.5155C100.357 10.827 100.147 10.3005 99.7289 9.936C99.3239 9.558 98.7434 9.369 97.9874 9.369C97.3259 9.369 96.7724 9.51075 96.3269 9.79425C95.8814 10.0642 95.6249 10.4355 95.5574 10.908H93.7349C93.8564 9.9495 94.3087 9.18675 95.0917 8.61975C95.8747 8.05275 96.8534 7.76925 98.0279 7.76925C99.3104 7.76925 100.323 8.1 101.065 8.7615C101.808 9.423 102.179 10.3207 102.179 11.4548V19.1093H100.397V16.983H100.093L100.397 16.6793C100.397 17.4893 100.08 18.1305 99.4454 18.603C98.8244 19.0755 97.9942 19.3118 96.9547 19.3118ZM97.4002 17.874C98.2642 17.874 98.9729 17.658 99.5264 17.226C100.08 16.794 100.357 16.2405 100.357 15.5655V13.986H96.9547C96.3472 13.986 95.8679 14.1547 95.5169 14.4923C95.1659 14.8298 94.9904 15.2888 94.9904 15.8693C94.9904 16.4903 95.1997 16.983 95.6182 17.3475C96.0502 17.6985 96.6442 17.874 97.4002 17.874Z" fill="#719DED"/>
<path d="M106.242 19.1093V7.97175H108.024V10.098H108.449L107.862 11.4142C107.862 10.2127 108.118 9.30825 108.631 8.70075C109.158 8.07975 109.934 7.76925 110.96 7.76925C112.134 7.76925 113.066 8.1405 113.754 8.883C114.456 9.612 114.807 10.6042 114.807 11.8598V12.528H112.985V12.0217C112.985 11.1442 112.769 10.476 112.337 10.017C111.918 9.5445 111.318 9.30825 110.535 9.30825C109.765 9.30825 109.158 9.5445 108.712 10.017C108.28 10.4895 108.064 11.1577 108.064 12.0217V19.1093H106.242Z" fill="#719DED"/>
<path d="M123.426 19.1093C122.467 19.1093 121.718 18.8527 121.178 18.3398C120.652 17.8267 120.388 17.1045 120.388 16.173V9.63225H117.25V7.97175H120.388V4.833H122.211V7.97175H126.666V9.63225H122.211V16.173C122.211 17.0235 122.616 17.4488 123.426 17.4488H126.463V19.1093H123.426Z" fill="#719DED"/>
<path d="M129.999 19.1093V17.4488H133.948V9.63225H130.505V7.97175H135.77V17.4488H139.517V19.1093H129.999ZM134.657 5.967C134.211 5.967 133.86 5.85225 133.604 5.62275C133.347 5.39325 133.219 5.08275 133.219 4.69125C133.219 4.28625 133.347 3.969 133.604 3.7395C133.86 3.4965 134.211 3.375 134.657 3.375C135.102 3.375 135.453 3.4965 135.71 3.7395C135.966 3.969 136.094 4.28625 136.094 4.69125C136.094 5.08275 135.966 5.39325 135.71 5.62275C135.453 5.85225 135.102 5.967 134.657 5.967Z" fill="#719DED"/>
<path d="M146.495 19.3118C145.618 19.3118 144.848 19.1362 144.187 18.7852C143.539 18.4342 143.032 17.9415 142.668 17.307C142.317 16.659 142.141 15.9097 142.141 15.0592V12.0217C142.141 11.1577 142.317 10.4085 142.668 9.774C143.032 9.1395 143.539 8.64675 144.187 8.29575C144.848 7.94475 145.618 7.76925 146.495 7.76925C147.373 7.76925 148.135 7.94475 148.783 8.29575C149.445 8.64675 149.951 9.1395 150.302 9.774C150.667 10.4085 150.849 11.1577 150.849 12.0217V13.986H143.923V15.0592C143.923 15.9367 144.146 16.6118 144.592 17.0843C145.037 17.5433 145.672 17.7728 146.495 17.7728C147.197 17.7728 147.764 17.6513 148.196 17.4083C148.628 17.1518 148.891 16.7737 148.986 16.2743H150.808C150.687 17.2057 150.228 17.9483 149.431 18.5018C148.648 19.0418 147.67 19.3118 146.495 19.3118ZM149.067 12.771V12.0217C149.067 11.1442 148.844 10.4693 148.399 9.99675C147.967 9.52425 147.332 9.288 146.495 9.288C145.672 9.288 145.037 9.52425 144.592 9.99675C144.146 10.4693 143.923 11.1442 143.923 12.0217V12.609H149.209L149.067 12.771Z" fill="#719DED"/>
<path d="M154.81 19.1093V7.97175H156.592V10.098H157.017L156.43 11.4142C156.43 10.2127 156.686 9.30825 157.199 8.70075C157.726 8.07975 158.502 7.76925 159.528 7.76925C160.703 7.76925 161.634 8.1405 162.323 8.883C163.025 9.612 163.376 10.6042 163.376 11.8598V12.528H161.553V12.0217C161.553 11.1442 161.337 10.476 160.905 10.017C160.487 9.5445 159.886 9.30825 159.103 9.30825C158.333 9.30825 157.726 9.5445 157.28 10.017C156.848 10.4895 156.632 11.1577 156.632 12.0217V19.1093H154.81Z" fill="#719DED"/>
<path d="M69.8962 46.1092V31.3268H71.7187V44.4488H78.4012V46.1092H69.8962Z" fill="#719DED"/>
<path d="M81.4308 46.1092V44.4488H85.3796V36.6323H81.9371V34.9718H87.2021V44.4488H90.9483V46.1092H81.4308ZM86.0883 32.967C85.6428 32.967 85.2918 32.8523 85.0353 32.6228C84.7788 32.3933 84.6506 32.0828 84.6506 31.6912C84.6506 31.2862 84.7788 30.969 85.0353 30.7395C85.2918 30.4965 85.6428 30.375 86.0883 30.375C86.5338 30.375 86.8848 30.4965 87.1413 30.7395C87.3978 30.969 87.5261 31.2862 87.5261 31.6912C87.5261 32.0828 87.3978 32.3933 87.1413 32.6228C86.8848 32.8523 86.5338 32.967 86.0883 32.967Z" fill="#719DED"/>
<path d="M98.5747 46.3118C97.6567 46.3118 96.9209 46.0688 96.3674 45.5828C95.8139 45.0833 95.5372 44.4083 95.5372 43.5578L95.9017 43.983H95.5372V46.1092H93.7147V31.3268H95.5372V34.5667L95.4967 37.098H95.9017L95.5372 37.5233C95.5372 36.6862 95.8139 36.018 96.3674 35.5185C96.9344 35.019 97.6702 34.7693 98.5747 34.7693C99.6952 34.7693 100.593 35.1405 101.268 35.883C101.943 36.6255 102.28 37.638 102.28 38.9205V42.1807C102.28 43.4497 101.943 44.4555 101.268 45.198C100.593 45.9405 99.6952 46.3118 98.5747 46.3118ZM97.9672 44.7323C98.7367 44.7323 99.3442 44.5028 99.7897 44.0438C100.235 43.5848 100.458 42.9233 100.458 42.0592V39.0218C100.458 38.1577 100.235 37.4963 99.7897 37.0373C99.3442 36.5783 98.7367 36.3488 97.9672 36.3488C97.2247 36.3488 96.6307 36.585 96.1852 37.0575C95.7532 37.53 95.5372 38.1847 95.5372 39.0218V42.0592C95.5372 42.8963 95.7532 43.551 96.1852 44.0235C96.6307 44.496 97.2247 44.7323 97.9672 44.7323Z" fill="#719DED"/>
<path d="M106.242 46.1092V34.9718H108.024V37.098H108.449L107.862 38.4142C107.862 37.2127 108.118 36.3083 108.631 35.7008C109.158 35.0798 109.934 34.7693 110.96 34.7693C112.134 34.7693 113.066 35.1405 113.754 35.883C114.456 36.612 114.807 37.6042 114.807 38.8597V39.528H112.985V39.0218C112.985 38.1443 112.769 37.476 112.337 37.017C111.918 36.5445 111.318 36.3083 110.535 36.3083C109.765 36.3083 109.158 36.5445 108.712 37.017C108.28 37.4895 108.064 38.1577 108.064 39.0218V46.1092H106.242Z" fill="#719DED"/>
<path d="M122.211 46.3118C121.333 46.3118 120.564 46.1363 119.902 45.7853C119.254 45.4343 118.748 44.9415 118.384 44.307C118.033 43.659 117.857 42.9098 117.857 42.0592V39.0218C117.857 38.1577 118.033 37.4085 118.384 36.774C118.748 36.1395 119.254 35.6468 119.902 35.2957C120.564 34.9448 121.333 34.7693 122.211 34.7693C123.088 34.7693 123.851 34.9448 124.499 35.2957C125.161 35.6468 125.667 36.1395 126.018 36.774C126.382 37.4085 126.565 38.1577 126.565 39.0218V40.986H119.639V42.0592C119.639 42.9368 119.862 43.6118 120.307 44.0843C120.753 44.5433 121.387 44.7728 122.211 44.7728C122.913 44.7728 123.48 44.6512 123.912 44.4082C124.344 44.1517 124.607 43.7738 124.702 43.2743H126.524C126.403 44.2057 125.944 44.9482 125.147 45.5017C124.364 46.0417 123.385 46.3118 122.211 46.3118ZM124.783 39.771V39.0218C124.783 38.1443 124.56 37.4693 124.114 36.9967C123.682 36.5243 123.048 36.288 122.211 36.288C121.387 36.288 120.753 36.5243 120.307 36.9967C119.862 37.4693 119.639 38.1443 119.639 39.0218V39.609H124.924L124.783 39.771Z" fill="#719DED"/>
<path d="M129.493 48.1343V46.6155H139.213V48.1343H129.493Z" fill="#507CB5"/>
<path d="M141.635 48.1343V46.6155H151.355V48.1343H141.635Z" fill="#4754A6"/>
<path d="M153.777 48.1343V46.6155H163.497V48.1343H153.777Z" fill="#6C8CC8"/>
<path d="M27.0814 2.0385C28.4544 -0.6795 32.3356 -0.679498 33.7087 2.0385L55.8062 45.7801C57.0536 48.2495 55.259 51.1666 52.4925 51.1666H8.29756C5.53104 51.1666 3.73645 48.2495 4.9839 45.7801L27.0814 2.0385Z" fill="#4859C7" fill-opacity="0.75"/>
<path d="M0.0436006 17.2593C-0.427724 14.1126 3.01904 11.8697 5.70518 13.5753L54.4171 44.5057C57.5542 46.4977 56.1432 51.3523 52.4271 51.3523H8.34789C6.50991 51.3523 4.9486 50.0074 4.67634 48.1897L0.0436006 17.2593Z" fill="#548EDB" fill-opacity="0.75"/>
<path d="M60.8393 17.2593C61.3106 14.1126 57.8638 11.8697 55.1777 13.5753L6.46577 44.5057C3.32866 46.4977 4.7397 51.3523 8.4558 51.3523H52.535C54.373 51.3523 55.9343 50.0074 56.2065 48.1897L60.8393 17.2593Z" fill="#79A4F4" fill-opacity="0.75"/>
</svg>
