<svg width="286" height="91" viewBox="0 0 286 91" fill="none" xmlns="http://www.w3.org/2000/svg">
<path d="M132.12 45.9137L128.328 39.6413L128.682 39.8539C128.588 39.8539 128.458 39.8539 128.292 39.8539C128.151 39.8775 127.985 39.8893 127.796 39.8893C126.213 39.8893 124.831 39.5822 123.65 38.9679C122.492 38.3301 121.595 37.4441 120.957 36.3101C120.319 35.1525 120 33.8059 120 32.2703V20.9303C120 19.371 120.319 18.0244 120.957 16.8904C121.595 15.7564 122.492 14.8822 123.65 14.268C124.831 13.6301 126.213 13.3112 127.796 13.3112C129.403 13.3112 130.785 13.6301 131.942 14.268C133.1 14.8822 133.998 15.7564 134.636 16.8904C135.274 18.0244 135.593 19.371 135.593 20.9303V32.2703C135.593 33.8531 135.25 35.2352 134.565 36.4164C133.88 37.5977 132.911 38.4836 131.659 39.0743L135.805 45.9137H132.12ZM127.796 37.0543C129.19 37.0543 130.3 36.6173 131.127 35.7431C131.978 34.869 132.403 33.7114 132.403 32.2703V20.9303C132.403 19.4655 131.978 18.3079 131.127 17.4574C130.3 16.5833 129.19 16.1462 127.796 16.1462C126.402 16.1462 125.28 16.5833 124.43 17.4574C123.603 18.3079 123.189 19.4655 123.189 20.9303V32.2703C123.189 33.7114 123.603 34.869 124.43 35.7431C125.28 36.6173 126.402 37.0543 127.796 37.0543Z" fill="#719DED"/>
<path d="M149.009 39.8893C146.765 39.8893 144.97 39.2278 143.623 37.9048C142.276 36.5582 141.603 34.7391 141.603 32.4474V20.0443H144.792V32.4474C144.792 33.9122 145.17 35.058 145.926 35.8849C146.682 36.6881 147.71 37.0898 149.009 37.0898C150.332 37.0898 151.372 36.6881 152.128 35.8849C152.908 35.058 153.297 33.9122 153.297 32.4474V20.0443H156.487V32.4474C156.487 34.7391 155.802 36.5582 154.431 37.9048C153.061 39.2278 151.254 39.8893 149.009 39.8893Z" fill="#719DED"/>
<path d="M168.593 39.8893C166.537 39.8893 164.919 39.3696 163.738 38.3301C162.556 37.2669 161.966 35.8376 161.966 34.0421C161.966 32.223 162.556 30.7937 163.738 29.7542C164.919 28.7147 166.514 28.1949 168.522 28.1949H174.546V26.2459C174.546 25.041 174.18 24.1196 173.447 23.4818C172.739 22.8203 171.723 22.4895 170.4 22.4895C169.242 22.4895 168.274 22.7376 167.494 23.2337C166.714 23.7062 166.265 24.3559 166.147 25.1827H162.958C163.171 23.5054 163.962 22.1706 165.332 21.1783C166.703 20.1861 168.415 19.6899 170.471 19.6899C172.715 19.6899 174.487 20.2688 175.786 21.4264C177.086 22.584 177.735 24.1551 177.735 26.1396V39.5349H174.617V35.814H174.085L174.617 35.2824C174.617 36.6999 174.062 37.8221 172.951 38.649C171.865 39.4759 170.412 39.8893 168.593 39.8893ZM169.372 37.3733C170.884 37.3733 172.125 36.9953 173.093 36.2393C174.062 35.4833 174.546 34.5146 174.546 33.3334V30.5693H168.593C167.529 30.5693 166.691 30.8646 166.076 31.4552C165.462 32.0458 165.155 32.8491 165.155 33.8649C165.155 34.9517 165.521 35.814 166.254 36.4519C167.01 37.0661 168.049 37.3733 169.372 37.3733Z" fill="#719DED"/>
<path d="M184.845 39.5349V20.0443H187.963V23.7652H188.707L187.68 26.0687C187.68 23.9661 188.128 22.3832 189.026 21.3201C189.948 20.2333 191.306 19.6899 193.101 19.6899C195.157 19.6899 196.787 20.3396 197.992 21.639C199.22 22.9148 199.835 24.6512 199.835 26.8483V28.0177H196.645V27.1318C196.645 25.5962 196.267 24.4268 195.511 23.6235C194.779 22.7966 193.728 22.3832 192.357 22.3832C191.011 22.3832 189.948 22.7966 189.168 23.6235C188.412 24.4504 188.034 25.6198 188.034 27.1318V39.5349H184.845Z" fill="#719DED"/>
<path d="M214.917 39.5349C213.24 39.5349 211.929 39.0861 210.984 38.1883C210.062 37.2906 209.602 36.0266 209.602 34.3965V22.9502H204.109V20.0443H209.602V14.5515H212.791V20.0443H220.587V22.9502H212.791V34.3965C212.791 35.8849 213.5 36.6291 214.917 36.6291H220.233V39.5349H214.917Z" fill="#719DED"/>
<path d="M226.42 39.5349V36.6291H233.331V22.9502H227.306V20.0443H236.52V36.6291H243.076V39.5349H226.42ZM234.571 16.536C233.791 16.536 233.177 16.3352 232.728 15.9336C232.279 15.5319 232.055 14.9886 232.055 14.3034C232.055 13.5947 232.279 13.0395 232.728 12.6379C233.177 12.2126 233.791 12 234.571 12C235.351 12 235.965 12.2126 236.414 12.6379C236.863 13.0395 237.087 13.5947 237.087 14.3034C237.087 14.9886 236.863 15.5319 236.414 15.9336C235.965 16.3352 235.351 16.536 234.571 16.536Z" fill="#719DED"/>
<path d="M255.288 39.8893C253.753 39.8893 252.406 39.5822 251.248 38.9679C250.114 38.3537 249.228 37.4914 248.59 36.381C247.976 35.247 247.669 33.9358 247.669 32.4474V27.1318C247.669 25.6198 247.976 24.3086 248.59 23.1983C249.228 22.0879 250.114 21.2256 251.248 20.6113C252.406 19.9971 253.753 19.6899 255.288 19.6899C256.824 19.6899 258.159 19.9971 259.293 20.6113C260.45 21.2256 261.336 22.0879 261.95 23.1983C262.588 24.3086 262.907 25.6198 262.907 27.1318V30.5693H250.788V32.4474C250.788 33.9831 251.177 35.1643 251.957 35.9912C252.737 36.7944 253.847 37.1961 255.288 37.1961C256.517 37.1961 257.509 36.9834 258.265 36.5582C259.021 36.1093 259.482 35.4478 259.647 34.5737H262.836C262.624 36.2038 261.82 37.5032 260.427 38.4718C259.056 39.4168 257.344 39.8893 255.288 39.8893ZM259.789 28.443V27.1318C259.789 25.5962 259.399 24.4149 258.619 23.5881C257.863 22.7612 256.753 22.3478 255.288 22.3478C253.847 22.3478 252.737 22.7612 251.957 23.5881C251.177 24.4149 250.788 25.5962 250.788 27.1318V28.1595H260.037L259.789 28.443Z" fill="#719DED"/>
<path d="M269.839 39.5349V20.0443H272.958V23.7652H273.702L272.674 26.0687C272.674 23.9661 273.123 22.3832 274.021 21.3201C274.942 20.2333 276.301 19.6899 278.096 19.6899C280.151 19.6899 281.782 20.3396 282.986 21.639C284.215 22.9148 284.829 24.6512 284.829 26.8483V28.0177H281.64V27.1318C281.64 25.5962 281.262 24.4268 280.506 23.6235C279.773 22.7966 278.722 22.3832 277.352 22.3832C276.005 22.3832 274.942 22.7966 274.163 23.6235C273.407 24.4504 273.029 25.6198 273.029 27.1318V39.5349H269.839Z" fill="#719DED"/>
<path d="M121.24 86.7849V60.9156H124.43V83.8791H136.124V86.7849H121.24Z" fill="#719DED"/>
<path d="M141.426 86.7849V83.8791H148.336V70.2002H142.312V67.2943H151.526V83.8791H158.081V86.7849H141.426ZM149.576 63.786C148.797 63.786 148.183 63.5852 147.734 63.1836C147.285 62.7819 147.06 62.2386 147.06 61.5534C147.06 60.8447 147.285 60.2895 147.734 59.8879C148.183 59.4626 148.797 59.25 149.576 59.25C150.356 59.25 150.97 59.4626 151.419 59.8879C151.868 60.2895 152.093 60.8447 152.093 61.5534C152.093 62.2386 151.868 62.7819 151.419 63.1836C150.97 63.5852 150.356 63.786 149.576 63.786Z" fill="#719DED"/>
<path d="M171.428 87.1393C169.821 87.1393 168.534 86.7141 167.565 85.8636C166.596 84.9894 166.112 83.8082 166.112 82.3198L166.75 83.064H166.112V86.7849H162.923V60.9156H166.112V66.5856L166.041 71.0153H166.75L166.112 71.7594C166.112 70.2947 166.596 69.1253 167.565 68.2511C168.557 67.377 169.845 66.9399 171.428 66.9399C173.388 66.9399 174.959 67.5896 176.141 68.889C177.322 70.1884 177.913 71.9603 177.913 74.2046V79.9101C177.913 82.1308 177.322 83.8909 176.141 85.1903C174.959 86.4896 173.388 87.1393 171.428 87.1393ZM170.364 84.3752C171.711 84.3752 172.774 83.9736 173.554 83.1703C174.333 82.3671 174.723 81.2094 174.723 79.6974V74.3818C174.723 72.8698 174.333 71.7122 173.554 70.9089C172.774 70.1057 171.711 69.7041 170.364 69.7041C169.065 69.7041 168.026 70.1175 167.246 70.9444C166.49 71.7713 166.112 72.9171 166.112 74.3818V79.6974C166.112 81.1622 166.49 82.308 167.246 83.1349C168.026 83.9618 169.065 84.3752 170.364 84.3752Z" fill="#719DED"/>
<path d="M184.845 86.7849V67.2943H187.963V71.0153H188.707L187.68 73.3187C187.68 71.2161 188.128 69.6332 189.026 68.5701C189.948 67.4833 191.306 66.9399 193.101 66.9399C195.157 66.9399 196.787 67.5896 197.992 68.889C199.22 70.1648 199.835 71.9012 199.835 74.0983V75.2678H196.645V74.3818C196.645 72.8462 196.267 71.6768 195.511 70.8735C194.779 70.0466 193.728 69.6332 192.357 69.6332C191.011 69.6332 189.948 70.0466 189.168 70.8735C188.412 71.7004 188.034 72.8698 188.034 74.3818V86.7849H184.845Z" fill="#719DED"/>
<path d="M212.791 87.1393C211.255 87.1393 209.909 86.8322 208.751 86.2179C207.617 85.6037 206.731 84.7414 206.093 83.631C205.479 82.497 205.172 81.1858 205.172 79.6974V74.3818C205.172 72.8698 205.479 71.5586 206.093 70.4483C206.731 69.3379 207.617 68.4756 208.751 67.8613C209.909 67.2471 211.255 66.9399 212.791 66.9399C214.326 66.9399 215.661 67.2471 216.795 67.8613C217.953 68.4756 218.839 69.3379 219.453 70.4483C220.091 71.5586 220.41 72.8698 220.41 74.3818V77.8193H208.29V79.6974C208.29 81.2331 208.68 82.4143 209.46 83.2412C210.239 84.0444 211.35 84.4461 212.791 84.4461C214.019 84.4461 215.012 84.2334 215.768 83.8082C216.524 83.3593 216.984 82.6978 217.15 81.8237H220.339C220.126 83.4538 219.323 84.7532 217.929 85.7218C216.559 86.6668 214.846 87.1393 212.791 87.1393ZM217.291 75.693V74.3818C217.291 72.8462 216.902 71.6649 216.122 70.8381C215.366 70.0112 214.256 69.5978 212.791 69.5978C211.35 69.5978 210.239 70.0112 209.46 70.8381C208.68 71.6649 208.29 72.8462 208.29 74.3818V75.4095H217.539L217.291 75.693Z" fill="#719DED"/>
<path d="M225.535 90.3287V87.6709H242.545V90.3287H225.535Z" fill="#507CB5"/>
<path d="M246.783 90.3287V87.6709H263.793V90.3287H246.783Z" fill="#4754A6"/>
<path d="M268.032 90.3287V87.6709H285.042V90.3287H268.032Z" fill="#6C8CC8"/>
<path d="M47.3924 3.56737C49.7953 -1.18913 56.5873 -1.18912 58.9902 3.56737L97.6608 80.1153C99.8438 84.4365 96.7033 89.5416 91.8619 89.5416H14.5207C9.67933 89.5416 6.53878 84.4365 8.72182 80.1152L47.3924 3.56737Z" fill="#4859C7" fill-opacity="0.75"/>
<path d="M0.076301 30.2038C-0.748517 24.697 5.28332 20.772 9.98406 23.7568L95.23 77.885C100.72 81.3709 98.2506 89.8665 91.7474 89.8665H14.6088C11.3923 89.8665 8.66005 87.513 8.1836 84.332L0.076301 30.2038Z" fill="#548EDB" fill-opacity="0.75"/>
<path d="M106.469 30.2038C107.294 24.697 101.262 20.772 96.561 23.7568L11.3151 77.885C5.82516 81.3709 8.29448 89.8665 14.7976 89.8665H91.9362C95.1527 89.8665 97.885 87.513 98.3615 84.332L106.469 30.2038Z" fill="#79A4F4" fill-opacity="0.75"/>
</svg>
