<svg width="42" height="35" viewBox="0 0 42 35" fill="none" xmlns="http://www.w3.org/2000/svg">
<path d="M18.6821 1.38937C19.6293 -0.463125 22.3067 -0.463123 23.2539 1.38937L38.4978 31.2022C39.3584 32.8852 38.1204 34.8735 36.2119 34.8735H5.72407C3.81559 34.8735 2.57758 32.8852 3.43814 31.2022L18.6821 1.38937Z" fill="#4859C7" fill-opacity="0.75"/>
<path d="M0.0300778 11.7634C-0.295065 9.61864 2.08268 8.09001 3.93571 9.25249L37.5396 30.3336C39.7037 31.6913 38.7303 35 36.1668 35H5.75878C4.49085 35 3.41379 34.0834 3.22597 32.8445L0.0300778 11.7634Z" fill="#548EDB" fill-opacity="0.75"/>
<path d="M41.9699 11.7634C42.2951 9.61864 39.9173 8.09001 38.0643 9.25249L4.4604 30.3336C2.29627 31.6913 3.26968 35 5.83322 35H36.2412C37.5091 35 38.5862 34.0834 38.774 32.8445L41.9699 11.7634Z" fill="#79A4F4" fill-opacity="0.75"/>
</svg>
