<svg width="15" height="24" viewBox="0 0 15 24" fill="none" xmlns="http://www.w3.org/2000/svg">
<path d="M15 16.375C15 18.3973 14.2903 20.1181 12.8708 21.5375C11.4514 22.957 9.73055 23.6667 7.70832 23.6667C5.6861 23.6667 3.96527 22.957 2.54582 21.5375C1.12638 20.1181 0.416656 18.3973 0.416656 16.375V5.58337C0.416656 4.12504 0.927073 2.88546 1.94791 1.86462C2.96874 0.843791 4.20832 0.333374 5.66666 0.333374C7.12499 0.333374 8.36457 0.843791 9.38541 1.86462C10.4062 2.88546 10.9167 4.12504 10.9167 5.58337V15.7917C10.9167 16.6862 10.6055 17.4445 9.98332 18.0667C9.3611 18.6889 8.60277 19 7.70832 19C6.81388 19 6.05555 18.6889 5.43332 18.0667C4.8111 17.4445 4.49999 16.6862 4.49999 15.7917V5.00004H6.83332V15.7917C6.83332 16.0445 6.91596 16.2535 7.08124 16.4188C7.24652 16.5841 7.45555 16.6667 7.70832 16.6667C7.9611 16.6667 8.17013 16.5841 8.33541 16.4188C8.50068 16.2535 8.58332 16.0445 8.58332 15.7917V5.58337C8.56388 4.76671 8.27707 4.07643 7.72291 3.51254C7.16874 2.94865 6.48332 2.66671 5.66666 2.66671C4.84999 2.66671 4.15971 2.94865 3.59582 3.51254C3.03193 4.07643 2.74999 4.76671 2.74999 5.58337V16.375C2.73055 17.7556 3.20693 18.9271 4.17916 19.8896C5.15138 20.8521 6.32777 21.3334 7.70832 21.3334C9.06943 21.3334 10.2264 20.8521 11.1792 19.8896C12.1319 18.9271 12.6278 17.7556 12.6667 16.375V5.00004H15V16.375Z" fill="#36418F"/>
</svg>
